<svg width="396.14971923828125px" height="121.89879760742187px" xmlns="http://www.w3.org/2000/svg" viewBox="51.925140380859375 14.050601196289065 396.14971923828125 121.89879760742187" style="background: none;" preserveAspectRatio="xMidYMid"><defs><linearGradient id="editing-shadow-gradient1" x1="0" x2="0" y1="0" y2="1"><stop offset="0" stop-color="#000000" stop-opacity="0"></stop><stop offset="0.2" stop-color="#000000" stop-opacity="0"></stop><stop offset="1" stop-color="#000000" stop-opacity="1"></stop></linearGradient><linearGradient id="editing-shadow-gradient2" x1="0.7249510543438649" x2="0.2750489456561352" y1="-0.47437006478523525" y2="1.4743700647852354"><stop offset="0" stop-color="#1db593"></stop><stop offset="1" stop-color="#fec918"></stop></linearGradient><filter id="editing-shadow" x="-100%" y="-100%" width="300%" height="300%"><feGaussianBlur stdDeviation="2"></feGaussianBlur><feComposite operator="in" in2="SourceGraphic"></feComposite><feGaussianBlur stdDeviation="1"></feGaussianBlur></filter></defs><g transform="translate(250,75)"><g transform="translate(-21.3, -1.2)"><g transform="skewX(45)"><g filter="url(#editing-shadow)"><g transform="translate(-100.25500273704529, 22.43000030517578)"><path d="M28.42-9.86L28.42-9.86L28.42-9.86Q29.63-8.32 29.63-5.82L29.63-5.82L29.63-5.82Q29.63-2.37 27.07-0.54L27.07-0.54L27.07-0.54Q24.51 1.28 20.48 1.28L20.48 1.28L20.48 1.28Q18.18 1.28 14.66 0.77L14.66 0.77L14.66 0.77Q7.74-0.32 5.63-0.32L5.63-0.32L5.63-0.32Q3.52-0.32 2.69-0.22L2.69-0.22L2.69-0.22Q1.86-0.13 0.51 0L0.51 0L8.38-42.24L35.97-42.24L35.97-42.24Q35.97-38.34 34.08-36.29L34.08-36.29L34.08-36.29Q32.19-34.24 28.48-34.24L28.48-34.24L28.48-34.24Q24.77-34.24 20.99-35.97L20.99-35.97L19.01-24.77L30.40-24.77L30.40-24.77Q30.40-21.38 28.74-19.49L28.74-19.49L28.74-19.49Q27.07-17.60 24.29-17.60L24.29-17.60L24.29-17.60Q21.50-17.60 19.78-18.24L19.78-18.24L19.78-18.24Q18.05-18.88 17.86-19.07L17.86-19.07L15.55-6.98L15.55-6.98Q17.09-6.78 19.97-6.78L19.97-6.78L19.97-6.78Q24.90-6.78 28.42-9.86ZM37.89-10.37L37.89-10.37L37.89-10.37Q35.84-11.84 35.84-14.66L35.84-14.66L35.84-14.66Q35.84-16.19 36.61-17.44L36.61-17.44L36.61-17.44Q37.38-18.69 38.91-18.88L38.91-18.88L51.52-18.88L51.52-18.88Q53.63-18.88 54.27-20.16L54.27-20.16L54.27-20.16Q55.30-19.58 55.74-18.37L55.74-18.37L55.74-18.37Q56.19-17.15 56.19-15.87L56.19-15.87L56.19-15.87Q56.19-14.59 55.20-13.34L55.20-13.34L55.20-13.34Q54.21-12.10 52.74-11.97L52.74-11.97L41.02-11.97L41.02-11.97Q39.68-11.97 39.04-11.55L39.04-11.55L39.04-11.55Q38.40-11.14 37.89-10.37ZM94.02-13.25L94.02-13.25L94.02-13.25Q95.68-12.03 95.68-9.44L95.68-9.44L95.68-9.44Q95.68-6.85 94.56-5.02L94.56-5.02L94.56-5.02Q93.44-3.20 91.26-1.79L91.26-1.79L91.26-1.79Q86.59 1.22 78.43 1.22L78.43 1.22L78.43 1.22Q70.27 1.22 65.82-3.04L65.82-3.04L65.82-3.04Q61.38-7.30 61.38-14.85L61.38-14.85L61.38-14.85Q61.38-25.54 66.94-33.66L66.94-33.66L66.94-33.66Q71.17-39.68 78.72-42.24L78.72-42.24L78.72-42.24Q82.62-43.52 86.46-43.52L86.46-43.52L86.46-43.52Q90.30-43.52 92.67-43.01L92.67-43.01L92.67-43.01Q95.04-42.50 96.83-41.47L96.83-41.47L96.83-41.47Q100.74-39.23 100.74-35.65L100.74-35.65L100.74-35.65Q100.74-32.38 97.66-29.95L97.66-29.95L97.66-29.95Q94.85-27.78 92.54-27.78L92.54-27.78L92.54-27.78Q90.24-27.78 89.28-28.10L89.28-28.10L89.28-28.10Q89.54-30.40 89.54-31.90L89.54-31.90L89.54-31.90Q89.54-33.41 89.47-34.50L89.47-34.50L89.47-34.50Q89.41-35.58 89.09-36.61L89.09-36.61L89.09-36.61Q88.45-38.98 86.50-38.98L86.50-38.98L86.50-38.98Q84.54-38.98 82.59-37.15L82.59-37.15L82.59-37.15Q80.64-35.33 78.98-32.26L78.98-32.26L78.98-32.26Q75.20-25.28 75.20-17.02L75.20-17.02L75.20-17.02Q75.20-13.06 77.44-10.78L77.44-10.78L77.44-10.78Q79.68-8.51 84.48-8.51L84.48-8.51L84.48-8.51Q88.06-8.51 91.46-10.88L91.46-10.88L91.46-10.88Q92.93-11.90 94.02-13.25ZM101.95-15.62L101.95-15.62L101.95-15.62Q101.95-27.71 108.22-35.33L108.22-35.33L108.22-35.33Q114.88-43.58 126.46-43.58L126.46-43.58L126.46-43.58Q134.85-43.58 139.07-39.52L139.07-39.52L139.07-39.52Q143.30-35.46 143.30-26.88L143.30-26.88L143.30-26.88Q143.30-13.82 136.64-6.21L136.64-6.21L136.64-6.21Q130.05 1.28 118.98 1.28L118.98 1.28L118.98 1.28Q110.34 1.28 106.14-3.04L106.14-3.04L106.14-3.04Q101.95-7.36 101.95-15.62ZM118.78-28.86L118.78-28.86L118.78-28.86Q115.90-17.34 115.90-8.26L115.90-8.26L115.90-8.26Q115.90-6.08 116.64-4.67L116.64-4.67L116.64-4.67Q117.38-3.26 119.33-3.26L119.33-3.26L119.33-3.26Q121.28-3.26 122.50-4.19L122.50-4.19L122.50-4.19Q123.71-5.12 124.67-7.23L124.67-7.23L124.67-7.23Q126.21-10.69 127.65-18.02L127.65-18.02L127.65-18.02Q129.09-25.34 129.22-28.38L129.22-28.38L129.22-28.38Q129.34-31.42 129.34-33.73L129.34-33.73L129.34-33.73Q129.34-36.03 128.64-37.50L128.64-37.50L128.64-37.50Q127.94-38.98 126.05-38.98L126.05-38.98L126.05-38.98Q124.16-38.98 122.88-37.82L122.88-37.82L122.88-37.82Q120.51-35.65 118.78-28.86ZM151.87 0L144.51 0L156.10-42.24L169.47-42.24L172.42-18.11L184.32-42.24L195.52-42.24L196.67-10.62L196.67-10.62Q196.93-4.35 200-2.43L200-2.43L200-2.43Q199.30-1.15 197.25 0.06L197.25 0.06L197.25 0.06Q195.20 1.28 192.48 1.28L192.48 1.28L192.48 1.28Q189.76 1.28 188.16 0.51L188.16 0.51L188.16 0.51Q186.56-0.26 185.66-1.54L185.66-1.54L185.66-1.54Q184.06-3.84 184.06-8.26L184.06-8.26L184.06-28.03L171.46 0L163.52 0L159.04-28.74L151.87 0Z" fill="url(#editing-shadow-gradient1)"></path></g></g></g></g><g><g transform="translate(-100.25500273704529, 22.43000030517578)"><path d="M28.42-9.86L28.42-9.86L28.42-9.86Q29.63-8.32 29.63-5.82L29.63-5.82L29.63-5.82Q29.63-2.37 27.07-0.54L27.07-0.54L27.07-0.54Q24.51 1.28 20.48 1.28L20.48 1.28L20.48 1.28Q18.18 1.28 14.66 0.77L14.66 0.77L14.66 0.77Q7.74-0.32 5.63-0.32L5.63-0.32L5.63-0.32Q3.52-0.32 2.69-0.22L2.69-0.22L2.69-0.22Q1.86-0.13 0.51 0L0.51 0L8.38-42.24L35.97-42.24L35.97-42.24Q35.97-38.34 34.08-36.29L34.08-36.29L34.08-36.29Q32.19-34.24 28.48-34.24L28.48-34.24L28.48-34.24Q24.77-34.24 20.99-35.97L20.99-35.97L19.01-24.77L30.40-24.77L30.40-24.77Q30.40-21.38 28.74-19.49L28.74-19.49L28.74-19.49Q27.07-17.60 24.29-17.60L24.29-17.60L24.29-17.60Q21.50-17.60 19.78-18.24L19.78-18.24L19.78-18.24Q18.05-18.88 17.86-19.07L17.86-19.07L15.55-6.98L15.55-6.98Q17.09-6.78 19.97-6.78L19.97-6.78L19.97-6.78Q24.90-6.78 28.42-9.86ZM37.89-10.37L37.89-10.37L37.89-10.37Q35.84-11.84 35.84-14.66L35.84-14.66L35.84-14.66Q35.84-16.19 36.61-17.44L36.61-17.44L36.61-17.44Q37.38-18.69 38.91-18.88L38.91-18.88L51.52-18.88L51.52-18.88Q53.63-18.88 54.27-20.16L54.27-20.16L54.27-20.16Q55.30-19.58 55.74-18.37L55.74-18.37L55.74-18.37Q56.19-17.15 56.19-15.87L56.19-15.87L56.19-15.87Q56.19-14.59 55.20-13.34L55.20-13.34L55.20-13.34Q54.21-12.10 52.74-11.97L52.74-11.97L41.02-11.97L41.02-11.97Q39.68-11.97 39.04-11.55L39.04-11.55L39.04-11.55Q38.40-11.14 37.89-10.37ZM94.02-13.25L94.02-13.25L94.02-13.25Q95.68-12.03 95.68-9.44L95.68-9.44L95.68-9.44Q95.68-6.85 94.56-5.02L94.56-5.02L94.56-5.02Q93.44-3.20 91.26-1.79L91.26-1.79L91.26-1.79Q86.59 1.22 78.43 1.22L78.43 1.22L78.43 1.22Q70.27 1.22 65.82-3.04L65.82-3.04L65.82-3.04Q61.38-7.30 61.38-14.85L61.38-14.85L61.38-14.85Q61.38-25.54 66.94-33.66L66.94-33.66L66.94-33.66Q71.17-39.68 78.72-42.24L78.72-42.24L78.72-42.24Q82.62-43.52 86.46-43.52L86.46-43.52L86.46-43.52Q90.30-43.52 92.67-43.01L92.67-43.01L92.67-43.01Q95.04-42.50 96.83-41.47L96.83-41.47L96.83-41.47Q100.74-39.23 100.74-35.65L100.74-35.65L100.74-35.65Q100.74-32.38 97.66-29.95L97.66-29.95L97.66-29.95Q94.85-27.78 92.54-27.78L92.54-27.78L92.54-27.78Q90.24-27.78 89.28-28.10L89.28-28.10L89.28-28.10Q89.54-30.40 89.54-31.90L89.54-31.90L89.54-31.90Q89.54-33.41 89.47-34.50L89.47-34.50L89.47-34.50Q89.41-35.58 89.09-36.61L89.09-36.61L89.09-36.61Q88.45-38.98 86.50-38.98L86.50-38.98L86.50-38.98Q84.54-38.98 82.59-37.15L82.59-37.15L82.59-37.15Q80.64-35.33 78.98-32.26L78.98-32.26L78.98-32.26Q75.20-25.28 75.20-17.02L75.20-17.02L75.20-17.02Q75.20-13.06 77.44-10.78L77.44-10.78L77.44-10.78Q79.68-8.51 84.48-8.51L84.48-8.51L84.48-8.51Q88.06-8.51 91.46-10.88L91.46-10.88L91.46-10.88Q92.93-11.90 94.02-13.25ZM101.95-15.62L101.95-15.62L101.95-15.62Q101.95-27.71 108.22-35.33L108.22-35.33L108.22-35.33Q114.88-43.58 126.46-43.58L126.46-43.58L126.46-43.58Q134.85-43.58 139.07-39.52L139.07-39.52L139.07-39.52Q143.30-35.46 143.30-26.88L143.30-26.88L143.30-26.88Q143.30-13.82 136.64-6.21L136.64-6.21L136.64-6.21Q130.05 1.28 118.98 1.28L118.98 1.28L118.98 1.28Q110.34 1.28 106.14-3.04L106.14-3.04L106.14-3.04Q101.95-7.36 101.95-15.62ZM118.78-28.86L118.78-28.86L118.78-28.86Q115.90-17.34 115.90-8.26L115.90-8.26L115.90-8.26Q115.90-6.08 116.64-4.67L116.64-4.67L116.64-4.67Q117.38-3.26 119.33-3.26L119.33-3.26L119.33-3.26Q121.28-3.26 122.50-4.19L122.50-4.19L122.50-4.19Q123.71-5.12 124.67-7.23L124.67-7.23L124.67-7.23Q126.21-10.69 127.65-18.02L127.65-18.02L127.65-18.02Q129.09-25.34 129.22-28.38L129.22-28.38L129.22-28.38Q129.34-31.42 129.34-33.73L129.34-33.73L129.34-33.73Q129.34-36.03 128.64-37.50L128.64-37.50L128.64-37.50Q127.94-38.98 126.05-38.98L126.05-38.98L126.05-38.98Q124.16-38.98 122.88-37.82L122.88-37.82L122.88-37.82Q120.51-35.65 118.78-28.86ZM151.87 0L144.51 0L156.10-42.24L169.47-42.24L172.42-18.11L184.32-42.24L195.52-42.24L196.67-10.62L196.67-10.62Q196.93-4.35 200-2.43L200-2.43L200-2.43Q199.30-1.15 197.25 0.06L197.25 0.06L197.25 0.06Q195.20 1.28 192.48 1.28L192.48 1.28L192.48 1.28Q189.76 1.28 188.16 0.51L188.16 0.51L188.16 0.51Q186.56-0.26 185.66-1.54L185.66-1.54L185.66-1.54Q184.06-3.84 184.06-8.26L184.06-8.26L184.06-28.03L171.46 0L163.52 0L159.04-28.74L151.87 0Z" fill="url(#editing-shadow-gradient2)"></path></g></g></g><style>text {
  font-size: 64px;
  font-family: Arial Black;
  dominant-baseline: central;
  text-anchor: middle;
}</style></svg>