<?xml version="1.0" encoding="UTF-8" standalone="no"?>
<!-- Created with Inkscape (http://www.inkscape.org/) -->
<svg xmlns:rdf="http://www.w3.org/1999/02/22-rdf-syntax-ns#" xmlns="http://www.w3.org/2000/svg" xmlns:cc="http://web.resource.org/cc/" xmlns:dc="http://purl.org/dc/elements/1.1/" xmlns:svg="http://www.w3.org/2000/svg" xmlns:inkscape="http://www.inkscape.org/namespaces/inkscape" xmlns:sodipodi="http://sodipodi.sourceforge.net/DTD/sodipodi-0.dtd" xmlns:ns1="http://sozi.baierouge.fr" xmlns:xlink="http://www.w3.org/1999/xlink" id="Layer_1" xml:space="preserve" version="1.0" viewBox="0 0 476.823 485.747" inkscape:version="0.91 r13725">
<g id="g5">
	<path id="path7" style="stroke:black;stroke-width:.036;stroke-miterlimit:10;fill-rule:evenodd" d="m38.709 242.87c0 134.1 88.631 242.86 197.96 242.86 109.3 0 197.93-108.76 197.93-242.86s-88.63-242.85-197.93-242.85c-109.33-0.002-197.96 108.75-197.96 242.85h-0.001z"/>
	<path id="path9" style="fill-rule:evenodd;stroke:black;stroke-width:.036;stroke-miterlimit:10;fill:white" d="m42.921 243.31c0 131.86 87.119 238.82 194.58 238.82s194.58-106.96 194.58-238.82c0-131.91-87.12-238.86-194.58-238.86-107.46-0.004-194.58 106.95-194.58 238.86h0.001z"/>
	<path id="path11" style="stroke:black;stroke-width:.036;stroke-miterlimit:10;fill-rule:evenodd" d="m56.097 199.42c-1.224-4.86-3.42-8.31-6.732-10.8-3.312-2.48-7.776-3.81-12.996-3.85-5.364-0.11-13.608-0.29-18.756 3.35-5.256 3.6-9.396 9.93-12.276 18.03-3.024 8-5.616 19.8-5.292 29.6 0.288 9.75 2.304 21.13 7.452 28.15 5.076 6.91 16.992 11.34 23.112 12.74 5.94 1.12 9.54-1.98 12.744-5.54 3.168-3.6 5.076-8.9 6.012-15.88l6.732-55.8z"/>
	<path id="path13" style="fill-rule:evenodd;fill:white" d="m50.085 259.33c-0.576-1.84-1.296-2.6-2.16-2.42-0.864 0.26-1.908 1.41-3.132 3.6-1.44 2.13-2.988 6.41-5.04 8.68-2.124 2.09-3.708 3.89-6.984 3.85-3.384-0.18-8.388-1.98-12.492-4.57-4.14-2.73-9.216-6.37-12.024-11.05-2.952-4.75-4.5-10.4-5.076-17.1-0.324-1.22-0.108-4.03 0.504-8.42 0.612-4.54 1.548-12.32 3.348-18.04 1.764-5.9 3.996-12.28 6.984-16.34 2.952-4.07 6.48-6.63 10.584-7.96 3.888-1.51 9.54-0.97 13.212-0.72 3.528 0.18 6.192 0.83 8.424 1.94 2.124 1.08 3.78 2.52 4.824 4.32 1.044 1.62 0.684 4.65 1.44 5.76 0.684 1.05 1.512 1.34 2.628 0.72 1.008-0.72 2.088-1.98 3.384-4.32-2.808 20.67-5.616 41.37-8.424 62.07z"/>
	<path id="path15" style="stroke:black;stroke-width:.036;stroke-miterlimit:10;fill-rule:evenodd" d="m45.297 211.23c-0.504-1.51-3.132-4.1-5.544-5.29-2.556-1.33-6.192-2.77-9.396-1.95-3.348 0.8-7.236 2.7-9.864 6.99-2.664 4.28-5.004 11.81-5.508 18.29-0.576 6.4 0.036 15.44 2.376 19.73 2.304 4.1 7.776 5.18 11.556 5.04 3.6-0.29 9.072-4.47 10.584-6.27 1.368-1.87 0.108-4.79-1.692-4.57-1.836 0.18-6.228 5.07-8.892 5.8-2.844 0.61-5.472-0.11-7.2-2.16-1.728-2.2-2.664-5.8-2.664-10.37-0.072-4.68 0.828-12.64 2.412-17.07 1.476-4.46 4.32-7.99 6.732-9.61 2.376-1.76 5.22-1.33 7.704-0.5 2.376 0.83 5.076 4.86 6.732 5.29 1.512 0.21 3.096-1.87 2.664-3.35z"/>
	<path id="path17" style="stroke:black;stroke-width:.036;stroke-miterlimit:10;fill-rule:evenodd" d="m420.78 201.51c1.18-4.82 3.38-8.39 6.73-10.84 3.27-2.52 7.59-3.74 12.96-3.81 5.33-0.11 13.53-0.29 18.79 3.35 5.18 3.6 9.22 9.93 12.24 18.03 2.92 7.99 5.51 19.8 5.29 29.59-0.39 9.76-2.41 21.14-7.45 28.16-5.18 6.91-17.14 11.34-23.08 12.74-6.04 1.11-9.64-1.98-12.74-5.55-3.2-3.6-5.11-8.89-6.01-15.87l-6.73-55.8z"/>
	<path id="path19" style="fill-rule:evenodd;fill:white" d="m426.79 261.41c0.54-1.83 1.26-2.59 2.16-2.41 0.75 0.25 1.8 1.41 3.13 3.6 1.4 2.13 2.95 6.41 5.04 8.68 2.05 2.09 3.6 3.89 6.98 3.85 3.28-0.18 8.32-1.98 12.5-4.57 4.03-2.7 9.14-6.44 12.02-11.09 2.92-4.79 4.43-10.33 5.08-17.06 0.28-1.23 0.07-4.03-0.51-8.43-0.72-4.53-1.65-12.31-3.35-18.03-1.8-5.91-4.03-12.28-6.98-16.35-3.06-4.06-6.59-6.62-10.58-7.95-4.07-1.51-9.65-0.97-13.25-0.72-3.64 0.18-6.3 0.83-8.43 1.94-2.26 1.08-3.81 2.52-4.78 4.32-1.16 1.62-0.76 4.65-1.44 5.76-0.76 1.05-1.7 1.33-2.67 0.72-1.04-0.72-2.16-1.98-3.35-4.32 2.81 20.66 5.62 41.36 8.43 62.06z"/>
	<path id="path21" style="stroke:black;stroke-width:.036;stroke-miterlimit:10;fill-rule:evenodd" d="m431.58 213.32c0.43-1.51 3.02-4.11 5.54-5.29 2.45-1.34 6.12-2.78 9.36-1.95 3.28 0.79 7.16 2.7 9.86 6.99 2.52 4.28 4.97 11.8 5.55 18.28 0.47 6.41-0.11 15.45-2.41 19.73-2.45 4.11-7.82 5.19-11.52 5.04-3.71-0.29-9.18-4.46-10.59-6.26-1.4-1.87-0.25-4.79 1.66-4.57 1.73 0.18 6.19 5.07 8.93 5.79 2.7 0.54 5.47-0.14 7.2-2.19 1.65-2.23 2.48-5.73 2.62-10.34-0.07-4.68-0.86-12.63-2.37-17.06-1.55-4.57-4.39-7.92-6.73-9.65-2.49-1.8-5.33-1.26-7.71-0.47-2.48 0.83-5.15 4.86-6.73 5.3-1.62 0.21-3.2-1.88-2.66-3.35z"/>
	<path id="path23" style="stroke:black;stroke-width:.036;stroke-miterlimit:10;fill-rule:evenodd" d="m157.18 4.554c-4.82-0.468-8.35-0.072-10.98 1.044-2.59 1.116-4.17 2.952-4.6 5.652-5.12-0.108-9.08 0.36-12.03 1.8-2.95 1.332-4.89 3.456-5.69 6.372-3.88 0.288-7.12 1.512-10.26 3.528-3.09 1.944-5.76 4.824-8.13 8.496-5.833 3.744-10.441 7.236-13.825 10.62-3.456 3.384-5.652 6.48-6.732 9.576-5.652 5.04-10.728 10.944-15.228 18.396-4.572 7.344-8.208 16.776-12.024 25.524-3.96 8.708-8.892 19.438-11.34 26.208-2.52 6.55-3.708 10.87-3.564 13.1-5.004-0.61-8.496-0.43-10.62 0.69-2.124 1.01-2.88 2.95-2.124 5.69-5.616-0.22-9.288 0.64-11.304 2.44-1.98 1.84-2.268 4.58-0.72 8.5-3.24 1.55-4.968 4.1-5.328 7.81-0.396 3.71 0.72 8.28 3.204 14.15 0.18 3.67 1.188 6.41 3.168 8.5 1.836 1.87 4.248 2.88 8.496 3.56 4.248 0.65 12.096 1.26 17.028 0.72 4.896-0.65 9.18-0.18 12.024-4.28 2.628-4.22 4.176-10.91 4.248-20.52 3.708-4.86 6.192-9.11 7.452-12.75 1.224-3.67 1.224-6.69 0-9.21 2.592-3.35 4.356-6.16 5.292-8.86 0.828-2.66 0.828-5.08 0-7.09 4.104-8.86 8.46-17.17 13.464-25.49 4.968-8.424 10.656-17.28 15.943-24.084 5.08-6.804 8.9-11.232 14.51-16.632 5.47-5.58 12.64-12.78 18.43-16.308 5.66-3.6 12.21-3.348 15.92-4.932 3.6-1.656 5.65-3.096 6.01-4.608 5.04 0.432 9.25-0.396 12.78-2.484 3.49-2.268 7.13-6.156 8.13-10.26 0.83-4.14-0.39-11.268-2.84-14.184-2.63-2.916-8.86-3.096-12.02-3.168-3.17-0.072-5.37 0.612-6.74 2.484z"/>
	<path id="path25" style="fill-rule:evenodd;stroke:black;stroke-width:.036;stroke-miterlimit:10;fill:white" d="m156.39 7.29c-2.37-0.864-4.43-0.684-6.44 0.54-2.02 1.152-3.82 3.348-5.55 6.588-5.65-0.972-9.79-0.684-12.7 0.72-2.92 1.404-4.47 3.924-4.65 7.704-4.53 0.252-8.31 1.332-11.63 3.384-3.34 2.052-5.97 4.932-8.02 8.784-5.22 2.952-9.255 5.94-12.531 9.108-3.276 3.132-5.544 6.3-6.804 9.648-6.084 5.688-11.088 11.808-15.552 18.792-4.536 6.948-7.2 14.184-10.908 22.536-3.888 8.176-9.108 19.186-11.628 26.636-2.556 7.46-3.636 13.07-3.384 17.54-4.32-1.88-7.344-2.42-9.468-1.62-2.124 0.75-3.096 2.73-3.06 6.08-4.5-0.54-7.704-0.25-10.008 0.72-2.232 0.94-3.276 3.06-3.564 5-0.432 1.84-0.18 3.82 0.9 6.09-2.052 0.25-3.6 1.47-4.5 3.38-1.044 1.84-1.404 5.87-1.08 8.21 0.252 2.3 1.26 4.21 2.88 5.72 0.18 2.92 1.08 5.12 2.7 6.99 1.548 1.76 2.7 3.06 6.768 3.74 4.032 0.61 12.492 0.94 17.172 0 4.5-1.11 7.884-2.45 10.008-6.23 1.98-3.85 2.7-9.39 2.16-16.63 3.456-4.1 5.652-7.81 6.984-11.27 1.224-3.56 1.404-6.58 0.54-9.5 3.528-3.89 5.544-7.13 6.588-10.01 0.936-2.88 0.54-5.22-1.044-7.16 5.112-11.52 10.692-22.14 17.136-32.438 6.408-10.44 13.715-20.844 21.095-28.98 7.38-8.172 16.13-15.264 22.36-19.476 5.94-4.176 10.08-4.212 13.78-5.544 3.64-1.476 6.38-1.944 8.21-3.06 1.8-1.224 2.45-2.34 2.34-3.744 5.37 0.036 9.72-0.792 13.07-2.628 3.38-1.836 6.12-5.04 6.95-8.244 0.54-3.312-0.51-9.396-2.85-11.448-2.34-2.16-7.99-1.512-10.72-1.404-2.67 0.036-4.65 0.432-5.55 1.476z"/>
	<path id="path27" style="stroke:black;stroke-width:.036;stroke-miterlimit:10;fill-rule:evenodd" d="m33.885 176.63c1.476-0.07 3.636 0.29 5.904-0.18 2.16-0.79 4.86-2.08 6.984-3.6 2.088-1.58 3.708-3.49 5.004-5.18 1.08-1.84 1.512-5.08 1.98-5 0.36 0.14 1.944 3.34 0.864 5.72-1.224 2.23-4.968 5.87-7.488 7.7-2.592 1.7-4.824 2.6-7.524 2.85-2.772 0.18-7.812-1.33-8.748-1.62-0.9-0.4 1.404-0.58 3.024-0.69z"/>
	<path id="path29" style="stroke:black;stroke-width:.036;stroke-miterlimit:10;fill-rule:evenodd" d="m36.945 172.49c0.936 1.34 4.752 5.48 6.444 6.45 1.584 0.86 3.816-0.04 3.384-0.9-0.576-1.05-4.5-3.39-6.084-4.65-1.584-1.29-2.412-2.55-3.024-2.66-0.792-0.18-1.584 0.36-0.72 1.76z"/>
	<path id="path31" style="stroke:black;stroke-width:.036;stroke-miterlimit:10;fill-rule:evenodd" d="m42.849 170.55c0.936 1.37 4.896 4.07 6.588 5.18 1.584 1.05 2.772 1.98 2.88 1.41-0.072-0.72-1.296-3.31-2.7-5.01-1.512-1.87-4.824-4.89-5.904-5.18-1.224-0.32-1.836 2.12-0.864 3.6z"/>
	<path id="path33" style="stroke:black;stroke-width:.036;stroke-miterlimit:10;fill-rule:evenodd" d="m315.08 4.518c4.72-0.432 8.32-0.072 10.94 1.08 2.56 1.116 4.14 2.952 4.61 5.652 5.15-0.18 9.04 0.36 12.06 1.764 2.95 1.332 4.79 3.456 5.65 6.372 3.82 0.36 7.1 1.548 10.26 3.564 3.03 2.052 5.8 4.788 8.18 8.496 5.83 3.744 10.29 7.236 13.78 10.62 3.42 3.384 5.62 6.516 6.74 9.54 5.58 5.004 10.65 11.016 15.22 18.432 4.61 7.38 8.03 16.704 12.06 25.488 3.93 8.714 8.72 19.444 11.31 26.204 2.45 6.56 3.64 10.88 3.56 13.11 4.97-0.65 8.46-0.36 10.62 0.72 2.09 1.04 2.85 2.88 2.13 5.65 5.54-0.22 9.32 0.61 11.34 2.48 1.94 1.8 2.27 4.68 0.68 8.5 3.2 1.48 4.93 4.07 5.33 7.78 0.36 3.67-0.76 8.35-3.21 14.18-0.21 3.64-1.22 6.52-3.16 8.5-1.95 1.9-4.32 2.8-8.5 3.52-4.39 0.65-12.1 1.26-16.99 0.72-5-0.68-9.25-0.1-12.06-4.24-2.77-4.18-4.14-10.98-4.25-20.56-3.78-4.86-6.15-9.11-7.42-12.74-1.26-3.68-1.26-6.74 0-9.18-2.69-3.35-4.42-6.16-5.32-8.86-0.9-2.66-0.9-5.08 0-7.09-4.07-8.86-8.61-17.17-13.47-25.49-5.04-8.496-10.8-17.172-15.91-24.084-5.15-6.876-9.07-11.232-14.54-16.668-5.62-5.616-12.68-12.708-18.4-16.272-5.83-3.564-12.31-3.456-15.95-4.968-3.63-1.656-5.69-3.096-6.01-4.608-5.04 0.432-9.29-0.396-12.74-2.484-3.57-2.268-7.31-6.156-8.18-10.26-0.9-4.14 0.33-11.304 2.85-14.148 2.48-2.988 8.82-3.132 12.06-3.204 3.13-0.18 5.33 0.648 6.73 2.484z"/>
	<path id="path35" style="fill-rule:evenodd;stroke:black;stroke-width:.036;stroke-miterlimit:10;fill:white" d="m315.87 7.254c2.27-0.864 4.36-0.684 6.41 0.54 1.98 1.224 3.78 3.384 5.54 6.624 5.62-0.972 9.76-0.684 12.71 0.72 2.88 1.44 4.43 3.852 4.65 7.668 4.5 0.216 8.28 1.404 11.63 3.42 3.31 2.088 5.9 4.824 8.06 8.748 5.07 2.916 9.29 6.012 12.49 9.144 3.28 3.132 5.36 6.3 6.8 9.648 6.02 5.652 11.06 11.772 15.56 18.756 4.43 6.84 7.09 14.256 10.9 22.536 3.86 8.172 8.93 19.192 11.63 26.642 2.49 7.45 3.67 13.07 3.42 17.53 4.29-1.87 7.31-2.41 9.47-1.62 2.05 0.76 3.06 2.74 3.02 6.08 4.47-0.54 7.67-0.25 10.01 0.72 2.16 0.94 3.14 3.06 3.6 5.01 0.51 1.83 0.07 3.81-0.9 6.08 2.06 0.25 3.5 1.48 4.47 3.39 0.83 1.87 1.33 5.86 1.08 8.24-0.29 2.3-1.3 4.21-2.88 5.72-0.25 2.92-1.05 5.12-2.67 6.99-1.58 1.76-2.88 3.06-6.8 3.74-4.14 0.61-12.6 0.94-17.17 0-4.61-1.08-7.99-2.52-10.01-6.26-2.05-3.85-2.77-9.4-2.16-16.63-3.42-4.11-5.69-7.82-6.95-11.27-1.29-3.46-1.47-6.66-0.54-9.47-3.53-3.89-5.69-7.13-6.62-10.01-0.97-2.88-0.61-5.22 1.08-7.16-5.11-11.49-10.84-22.21-17.17-32.474-6.52-10.368-13.83-20.844-21.1-28.944-7.49-8.136-16.24-15.336-22.36-19.512-6.01-4.176-10.18-4.212-13.78-5.544-3.75-1.476-6.48-1.98-8.21-3.024-1.84-1.188-2.49-2.448-2.34-3.78-5.44 0.036-9.69-0.792-13.03-2.628-3.42-1.908-6.3-4.968-6.99-8.208-0.64-3.312 0.44-9.396 2.85-11.448 2.27-2.124 7.88-1.584 10.73-1.44 2.76 0.036 4.49 0.432 5.57 1.476z"/>
	<path id="path37" style="stroke:black;stroke-width:.036;stroke-miterlimit:10;fill-rule:evenodd" d="m438.35 176.6c-1.55-0.07-3.75 0.29-5.91-0.18-2.23-0.72-4.93-2.09-6.98-3.57-2.16-1.58-3.78-3.49-5.01-5.18-1.11-1.84-1.58-5.08-1.94-5-0.54 0.14-2.09 3.34-0.9 5.72 1.08 2.27 4.93 5.8 7.52 7.67 2.49 1.76 4.76 2.59 7.49 2.88 2.63 0.18 7.78-1.33 8.79-1.62 0.86-0.36-1.59-0.65-3.06-0.72z"/>
	<path id="path39" style="stroke:black;stroke-width:.036;stroke-miterlimit:10;fill-rule:evenodd" d="m435.32 172.49c-1.04 1.34-4.86 5.48-6.44 6.45-1.66 0.86-3.96-0.04-3.42-0.9 0.5-1.05 4.43-3.39 6.08-4.65 1.55-1.26 2.34-2.62 3.06-2.7 0.65-0.21 1.59 0.44 0.72 1.8z"/>
	<path id="path41" style="stroke:black;stroke-width:.036;stroke-miterlimit:10;fill-rule:evenodd" d="m429.42 170.51c-0.98 1.44-5.08 3.96-6.63 5.19-1.69 1.04-2.84 1.98-2.88 1.44-0.03-0.72 1.19-3.31 2.7-5.01 1.41-1.87 4.72-4.89 5.91-5.18 1.08-0.29 1.83 2.02 0.9 3.56z"/>
	<path id="path43" style="stroke:black;stroke-width:.036;stroke-miterlimit:10;fill-rule:evenodd" d="m207.73 167.38c0 7.35 5.97 13.32 13.32 13.32 7.38 0 13.35-5.97 13.35-13.32 0-7.38-5.97-13.32-13.35-13.32-7.35 0-13.32 5.94-13.32 13.32z"/>
	<path id="path45" style="fill-rule:evenodd;stroke:black;stroke-width:.036;stroke-miterlimit:10;fill:white" d="m214.46 163.89c0 1.98 1.62 3.6 3.64 3.6 1.98 0 3.6-1.62 3.6-3.6 0-2.02-1.62-3.64-3.6-3.64-2.02 0-3.64 1.62-3.64 3.64z"/>
	<path id="path47" style="stroke:black;stroke-width:.036;stroke-miterlimit:10;fill-rule:evenodd" d="m178.24 139.3c3.57-2.3 11.34-5.9 17.36-8.03 5.97-2.26 13.39-3.99 18.36-4.64 4.86-0.68 9.64 0.04 10.62 1.04 0.72 1.05-1.84 3.78-5.73 5.15-4.03 1.23-12.24 0.94-17.82 2.59-5.65 1.52-11.63 5.01-15.55 6.99-3.92 1.94-6.23 4.46-8.03 4.93-2.01 0.36-3.45-1.33-3.35-2.59 0.11-1.33 0.47-3.28 4.14-5.44z"/>
	<path id="path49" style="stroke:black;stroke-width:.036;stroke-miterlimit:10;fill-rule:evenodd" d="m283.33 167.38c0 7.35-5.98 13.32-13.32 13.32-7.38 0-13.36-5.97-13.36-13.32 0-7.38 5.98-13.32 13.36-13.32 7.34 0 13.32 5.94 13.32 13.32z"/>
	<path id="path51" style="fill-rule:evenodd;stroke:black;stroke-width:.036;stroke-miterlimit:10;fill:white" d="m272.71 163.64c0 1.98-1.62 3.6-3.64 3.6-1.98 0-3.6-1.62-3.6-3.6 0-2.02 1.62-3.64 3.6-3.64 2.02 0 3.64 1.62 3.64 3.64z"/>
	<path id="path53" style="stroke:black;stroke-width:.036;stroke-miterlimit:10;fill-rule:evenodd" d="m312.81 139.3c-3.63-2.3-11.41-5.9-17.35-8.03-6.08-2.26-13.5-3.99-18.36-4.64-4.97-0.68-9.76 0.04-10.62 1.04-0.83 1.05 1.73 3.78 5.72 5.15 3.93 1.23 12.14 0.94 17.82 2.59 5.55 1.52 11.52 5.01 15.56 6.99 3.85 1.94 6.15 4.46 8.02 4.93 1.91 0.36 3.35-1.33 3.35-2.59-0.21-1.33-0.57-3.28-4.14-5.44z"/>
	<path id="path55" style="stroke:black;stroke-width:.036;stroke-miterlimit:10;fill-rule:evenodd" d="m70.389 158.81c0.468-4.32 3.888-15.37 6.372-22.46 2.376-7.27 6.588-17.35 8.316-19.98 1.764-2.55 2.736 0.54 1.944 4.72-1.008 4.07-5.22 12.85-7.488 19.69-2.304 6.8-4.608 17.68-6.084 20.81-1.584 2.84-3.672 1.54-3.06-2.78z"/>
	<path id="path57" style="stroke:black;stroke-width:.036;stroke-miterlimit:10;fill-rule:evenodd" d="m69.561 167.13c-0.648 1.19-1.764 6.23-1.404 7.49 0.432 1.08 2.88 0.93 3.6-0.29 0.504-1.3 0.36-5.72 0-6.91-0.54-1.3-1.548-1.44-2.196-0.29z"/>
	<path id="path59" style="stroke:black;stroke-width:.036;stroke-miterlimit:10;fill-rule:evenodd" d="m89.973 105.82c-0.972 1.05-3.42 5.47-3.312 6.88 0.072 1.22 2.556 1.58 3.564 0.65 0.9-1.05 1.728-5.44 1.8-6.66-0.072-1.41-1.224-1.84-2.052-0.87z"/>
	<path id="path61" style="stroke:black;stroke-width:.036;stroke-miterlimit:10;fill-rule:evenodd" d="m319.26 43.254c3.85 1.872 13.28 8.28 19.4 12.96 6.05 4.5 14.4 11.592 16.45 14.076 1.8 2.448-1.51 2.448-5.07 0.396-3.68-2.268-10.73-8.928-16.46-13.176-5.86-4.32-15.44-9.828-17.89-12.204-2.45-2.484-0.29-3.816 3.57-2.052z"/>
	<path id="path63" style="stroke:black;stroke-width:.036;stroke-miterlimit:10;fill-rule:evenodd" d="m311.59 39.906c-1.08-1.116-5.4-3.528-6.7-3.636-1.33-0.036-1.8 2.484-0.82 3.528 0.93 0.864 5.22 2.088 6.58 2.124 1.26-0.036 1.8-1.08 0.94-2.016z"/>
	<path id="path65" style="stroke:black;stroke-width:.036;stroke-miterlimit:10;fill-rule:evenodd" d="m363.65 78.174c-0.83-1.296-4.29-4.86-5.51-5.256-1.26-0.36-2.49 1.944-1.73 3.168 0.72 1.116 4.5 3.348 5.79 3.78 1.16 0.18 2.09-0.432 1.45-1.692z"/>
	<path id="path67" style="stroke:black;stroke-width:.036;stroke-miterlimit:10;fill-rule:evenodd" d="m234.98 395.19c-9.65-1.01-13.5-0.72-24.52-4.07-11.05-3.42-28.87-9.18-41.11-16.06-12.2-6.94-21.85-14.5-31.57-25.05-9.68-10.62-19.87-25.09-26.14-37.84-6.26-12.78-9.9-25.27-11.16-38.12-0.18-2.63 0.54-5.04 2.16-7.63 1.59-2.63 6.92-5.87 7.38-7.64 0.33-1.76-2.48-4.42-4.93-2.98-2.52 1.44-7.449 5.9-9.789 11.16-2.484 5.07-3.888 14.43-4.356 19.33-0.468 4.82 1.044 8.13 1.908 9.54 0.828 1.33 2.34 0.83 2.988-1.66 0.504-2.55 0.648-7.09 0.288-13.61 2.412 12.68 6.771 25.24 13.611 38.13 6.76 12.85 15.15 27.54 26.67 38.66 11.56 10.98 28.55 20.49 41.4 26.97 12.64 6.33 24.59 8.56 33.77 11.16 9 2.48 13.25 3.06 20.12 3.81 6.84 0.61 13.79 0.61 20.7 0 6.88-0.75 11.06-1.33 20.16-3.81 9.08-2.6 21.03-4.83 33.77-11.16 12.64-6.48 29.81-15.99 41.37-26.97 11.37-11.12 19.9-25.81 26.71-38.66 6.77-12.89 11.16-25.45 13.61-38.13-0.36 6.52-0.33 11.06 0.25 13.61 0.54 2.49 2.09 2.99 2.99 1.66 0.79-1.41 2.26-4.72 1.9-9.54-0.54-4.9-1.94-14.26-4.35-19.33-2.41-5.26-7.35-9.72-9.79-11.16-2.56-1.44-5.3 1.22-4.9 2.98 0.43 1.77 5.62 5.01 7.34 7.64 1.52 2.59 2.38 5 2.2 7.63-1.26 12.85-4.93 25.34-11.16 38.12-6.3 12.75-16.45 27.22-26.14 37.84-9.72 10.55-19.4 18.11-31.6 25.05-12.24 6.88-30.06 12.64-41.11 16.06-11.02 3.35-14.84 3.06-24.52 4.07-9.65 1.04-4.47 1.04-14.15 0z"/>
	<path id="path69" style="stroke:black;stroke-width:.036;stroke-miterlimit:10;fill-rule:evenodd" d="m228.5 477.77c-4.36-0.28-15.7-2.09-23.04-3.85-7.38-1.84-18-4.61-20.74-6.08-2.7-1.55 0.22-2.88 4.47-2.45 4.17 0.39 13.28 3.78 20.37 5.29 6.99 1.44 18.04 2.56 21.35 3.78 3.06 1.19 1.84 3.31-2.41 3.31z"/>
	<path id="path71" style="stroke:black;stroke-width:.036;stroke-miterlimit:10;fill-rule:evenodd" d="m236.85 477.7c1.26 0.4 6.34 1.01 7.6 0.58 1.04-0.51 0.54-3.17-0.69-3.57-1.4-0.54-5.68 0.22-6.87 0.76-1.23 0.5-1.33 1.62-0.04 2.23z"/>
	<path id="path73" style="stroke:black;stroke-width:.036;stroke-miterlimit:10;fill-rule:evenodd" d="m173.67 464.13c1.15 0.79 5.87 2.66 7.2 2.56 1.23-0.36 1.37-2.77 0.29-3.64-1.19-0.86-5.62-1.26-6.88-1.04-1.29 0.1-1.72 1.33-0.61 2.12z"/>
</g>
<metadata><rdf:RDF><cc:Work><dc:format>image/svg+xml</dc:format><dc:type rdf:resource="http://purl.org/dc/dcmitype/StillImage"/><cc:license rdf:resource="http://creativecommons.org/licenses/publicdomain/"/><dc:publisher><cc:Agent rdf:about="http://openclipart.org/"><dc:title>Openclipart</dc:title></cc:Agent></dc:publisher><dc:title>G Man Face 6 - World Label 2</dc:title><dc:date>2006-12-26T00:00:00</dc:date><dc:description/><dc:source>https://openclipart.org/detail/7725/-by--7725</dc:source><dc:creator><cc:Agent><dc:title>Gerald_G</dc:title></cc:Agent></dc:creator></cc:Work><cc:License rdf:about="http://creativecommons.org/licenses/publicdomain/"><cc:permits rdf:resource="http://creativecommons.org/ns#Reproduction"/><cc:permits rdf:resource="http://creativecommons.org/ns#Distribution"/><cc:permits rdf:resource="http://creativecommons.org/ns#DerivativeWorks"/></cc:License></rdf:RDF></metadata></svg>
